<?xml version="1.0" encoding="UTF-8"?>
<svg version="1.1" viewBox="0 0 2048 1583" width="1280" height="1280" xmlns="http://www.w3.org/2000/svg">
<path transform="translate(961,700)" d="m0 0h35l31 2 25 5 21 6 25 10 22 12 11 8 14 10 15 14 14 14 11 14 10 14 10 18 8 16 7 18 6 23 5 30 1 12v19l-3 26-6 28-7 21-7 16-10 19-12 18-10 13-11 12-14 14-14 11-10 7-18 11-16 8-19 8-32 9-20 3-20 1h-150l18 33 17 32 12 23 10 19 4 8-1 3-14-8-28-18-17-11-36-24-22-15-19-13-18-13-17-12-36-27-13-11-14-11-10-9-8-7-15-15-9-11-8-10-10-15-12-22-8-19-8-25-4-21-2-20v-32l3-25 3-15 9-29 9-20 12-21 12-17 11-13 10-11 8-7 10-9 18-13 18-11 16-8 24-9 33-8 17-2zm-217 180-12 2-10 5-9 9-5 10-2 10 1 13 4 10 9 10 9 6 14 3 12-1 12-5 11-11 5-11 1-14-2-11-6-10-8-8-10-5zm162 0-11 2-10 5-9 9-6 13-1 5v11l3 10 6 9 7 7 10 5 8 2h11l10-3 10-6 8-10 4-9 1-5v-13l-4-11-6-8-9-8-7-3zm156 1-11 4-10 9-5 8-4 11v12l3 10 6 9 7 7 10 5 9 2h9l13-4 9-6 7-9 4-9 1-4v-13l-3-10-6-9-8-8-9-4-4-1z" fill="#FEFEFE"/>
<path transform="translate(778,631)" d="m0 0h386l19 2 36 6 15 4 27 9 25 11 20 11 16 10 15 11 13 11 8 7 10 9 10 10 7 8 8 10 14 19 11 18 11 20 9 20 9 26 6 23 4 20 2 16 1 15v32l-2 25-3 18-7 29-9 27-9 20-13 25-16 24-7 9-9 11-9 10-14 15-12 11-10 9-11 9-12 10-17 13-14 11-16 12-19 14-18 13-34 24-27 18-13 9-30 20-14 9-15 10-40 25-17 10-6 3h-14l-6-3-7-6-3-5-1-4v-10l4-14 12-29 5-11 16-36 11-23 8-18 4-7-119-1-14-1 3-2 23-5 23-7 19-5 44-12 32-9 18-5 9-2h8l9 4 5 5 4 6 1 3v12l-8 16-13 25-13 28-8 17-6 12 5-2 20-14 20-13 24-16 13-9 19-13 14-10 17-12 18-13 21-16 19-14 17-14 13-11 11-9 17-16 11-11 9-11 8-10 14-21 12-22 9-21 9-29 4-19 2-15 1-15v-33l-2-20-3-18-5-19-5-16-11-26-13-23-8-12-13-17-14-15-14-14-11-9-19-14-23-13-21-10-22-8-33-8-22-3-42-1h-345l-10-2-6-4-5-6-3-7v-11l3-8 7-7z" fill="#FEFEFE"/>
<path transform="translate(1706,984)" d="m0 0h11l61 6 36 4 51 5 22 3 4 1v8l-2 9-4 3-28 11-59 24-74 30-3 1 10 7 25 17 15 10 13 9 22 15 19 13 15 10 20 14 11 8v10l-1 7-1 1-20-1-53-6-70-7-37-4-5-1 1-16 1-7 3-1 51 5 56 6 34 3 6 2-5-5-38-26-23-16-64-44-11-8-4-4 4-4 39-16 38-15 64-26 18-7h2v-2l-18-1-70-7-46-5-16-2-1-1v-9z" fill="#FEFEFE"/>
<path transform="translate(1581,359)" d="m0 0 5 3 25 25 8 7 10 10 10 13 5 10 3 12v13l-3 12-6 10-9 9-16 8-7 2h-16l-13-5-13-8 2 4v11l-11 57-1 6v13l3 9 3 5 4 3-1 6-4 3-6-2-8-6-8-11-4-9v-21l5-23 5-30 2-10v-10l-6-12-5-5v-2h-2l-4-5-3-1-2 4-7 6-7 8-39 39-4-1-15-14 3-5 75-75 5-6 4-4h2l1-3 6-5 5-6h2v-2l6-5 2-3h2l2-4h2l2-4zm9 25-20 20-4 5-6 5-7 8-18 18 2 4 18 18 9 6 8 4 4 1h19l10-4 8-6 8-9 4-11v-16l-5-13-8-10-19-19z" fill="#FEFEFE"/>
<path transform="translate(981,157)" d="m0 0h10l17 2 9 4 9 5 5 4 8 11 5 15v15l-5 15-7 11-10 8-10 5-12 2-1 1 8 6 11 13 8 12 13 18 11 14 8 7 8 4 13 1 2 4-1 5-2 2-9 2h-16l-12-5-12-11-15-20-14-19-9-12-8-9-6-3-4-1-24-1 2 22 2 45v15l-13 1h-11l-2-32-2-54-4-94 1-6zm-22 12-13 1v15l2 56 1 9 1 1 27-1 15-3 10-6 7-6 5-7 4-11 1-5v-8l-3-12-5-8-7-7-12-6-7-2z" fill="#FEFEFE"/>
<path transform="translate(185,794)" d="m0 0 14 2 118 20 35 6 17 3-1 10-3 14-10-1-36-6-28-5-18-3-1 12-5 29-10 60-1 9 16 2 41 7 31 5 2 1-3 23-5 1-25-5-44-7-94-16-16-3-1-4 4-20 9 1 54 9 17 3 6-33 8-47 5-29-24-4-35-6-19-3-2-1 1-9z" fill="#FEFEFE"/>
<path transform="translate(823,176)" d="m0 0 3 1 3 12-12 5-36 12-41 13h-2l4 11 16 49v3l17-5 36-12 20-6h7l2 6-1 5-67 22-9 2 3 11 12 35 7 23 1 4 6-1 38-12 40-13 8-1 3 6 1 7-36 12-52 17-25 8-3-5-10-31-6-18-14-43-9-28-13-40-3-9 1-4 36-12 50-16z" fill="#FEFEFE"/>
<path transform="translate(1743,545)" d="m0 0 4 1 15 27 16 27 13 23 10 17 4 7v2l-9 6-4-1-6-9-14-25-9-15-12-21-6-10-16 8-26 15-15 9 2 5 10 17 15 26 12 21-1 4-6 3-4-1-8-13-15-26-13-23-3-5-5 1-16 9-24 14-19 11-3 1 2 6 11 20 9 15 12 21 11 19 1 4-10 6-4-2-14-24-12-21-22-38-10-17 5-5 28-16 24-14 19-11 28-16 24-14 23-13z" fill="#FEFEFE"/>
<path transform="translate(1192,172)" d="m0 0h9l13 2 17 5 11 6 9 7 7 7 6 10 3 11v9l-3 1-14-4-1-2-1-12-4-8-5-5-9-6-12-5-14-3h-10l-14 4-8 5-5 8-2 7v7l4 9 8 10 13 10 18 12 11 7 10 8 10 9 9 13 5 12v17l-4 13-7 11-8 8-13 7-15 3h-19l-18-3-16-6-14-8-12-11-6-8-5-13-1-11 1-7 8 1 9 3 1 15 4 10 7 9 10 7 11 5 12 3 7 1h18l10-3 6-4 5-6 4-12v-12l-4-10-8-11-17-13-27-18-11-9-7-7-7-11-3-6-1-5v-10l3-12 6-12 9-9 9-5 9-3z" fill="#FEFEFE"/>
<path transform="translate(1656,762)" d="m0 0 149 22 50 8 3 8v5l-5 5-14 12-10 8-11 9-13 11-10 8-14 11-14 12-10 8-16 13-22 18-13 11-6 4-4-10-3-15 8-7 10-8 11-9 16-13 1-2-10-39-7-28-5-18v-3l-31-4-27-5-3-3-1-8zm74 23 2 10 17 67 2 1 14-11 12-10 11-9 13-11 10-8 13-11 2-1-1-3-25-4-61-9z" fill="#FEFEFE"/>
<path transform="translate(312,1034)" d="m0 0 5 1 8 7 7 7 9 14 7 15 5 15 4 26v21l-4 21-7 16-7 11-9 10-13 10-15 8-15 5-14 3-11 1h-11l-15-2-14-4-12-6-9-7-10-9-11-15-8-16-5-16-3-15-1-11v-14l2-14 4-13 7-12 9-10 7-6h2l3 13v7l-8 6-6 9-5 13-2 13v11l3 17 4 12 7 12 11 12 11 8 16 7 13 3h27l16-4 15-6 10-6 9-7 9-9 8-14 5-12 2-9v-29l-4-17-7-16-9-13-8-9-7-6 2-4z" fill="#FEFEFE"/>
<path transform="translate(259,616)" d="m0 0h45l119 3 31 1 10 1-1 5-9 17-1 1h-21l-21-1h-18l-40 80 1 4 12 13 9 11 11 13 4 7-3 5-2 5-5-5-9-11-10-11-9-11-8-9-9-11-9-10-9-11-13-15-9-11-10-11-9-11-9-10-9-11-5-6zm20 23 6 8 11 12 9 11 13 15 9 11 12 13 5 5 35-70v-3l-83-2z" fill="#FEFEFE"/>
<path transform="translate(1358,220)" d="m0 0 5 2 27 14 22 12 19 10 22 12 26 14 22 12 4 3-2 5-4 7-5-1-22-12-28-15-6-3h-3l-15 28-65 120-5-1-17-9 2-6 14-26 16-29 12-23 10-18 11-20 6-11 9-17v-2l-27-14-18-10-16-9 1-4z" fill="#FEFEFE"/>
<path transform="translate(623,249)" d="m0 0 4 2 5 8-1 3-27 18-16 10-11 7-3 3 7 11 15 23 10 16 12 18 10 16 13 20 22 34 2 3-1 4-15 10h-4l-8-11-14-22-17-26-13-20-11-17-14-22-10-15-4-7v-2l-10 5-40 26-9 6-4-1-6-8 1-4 19-12 25-16 20-13 22-14 23-15 25-16z" fill="#FEFEFE"/>
<path transform="translate(431,384)" d="m0 0 5 2 7 6-2 4-12 13-9 11-14 15-7 8-2 4 12 11 8 7 14 12 12 11 11 9 16 15 8 7 13 11 14 13 11 9 8 8-2 4-7 7-6 7-8-6-15-13-13-12-8-7-14-12-13-12-11-9-13-12-8-7-14-12-11-10-4 2-10 11-7 8-11 12-9 10-6 8-4-1-7-5-1-3 9-11 12-13 9-11 14-15 9-11 15-16 7-8 12-14 12-13 9-11z" fill="#FEFEFE"/>
</svg>
